{"title":"Wrong.Side.Of.Town.2010.DVDRiP.XViD.AC3(5.1).Multi_Sub.avi.Zen_B","uid":5831610,"size":1477491422,"categoryP":"video","categoryS":"movies","magnet":"?xt=urn:btih:123c0fcd317090cd1a5da7295d652e9748e64d78&amp;dn=Wrong.Side.Of.Town.2010.DVDRiP.XViD.AC3%285.1%29.Multi_Sub.avi.Zen_B&amp;tr=udp%3A%2F%2Ftracker.openbittorrent.com%3A80&amp;tr=udp%3A%2F%2Fopen.demonii.com%3A1337&amp;tr=udp%3A%2F%2Ftracker.coppersurfer.tk%3A6969&amp;tr=udp%3A%2F%2Fexodus.desync.com%3A6969","seeders":0,"leechers":0,"uploader":"Zen_Bud","files":-1,"time":1284538200,"description":"\nComplete name                    : Wrong.Side.Of.Town.2010.avi\n\nFormat                           : AVI\nFile size                        : 1.37 GiB\nDuration                         : 1h 21mn\nOverall bit rate                 : 2 391 Kbps\n\nVideo\n\nFormat                           : MPEG-4 Visual\nCodec ID/Hint                    : XviD\nDuration                         : 1h 21mn\nBit rate                         : 1 932 Kbps\nWidth                            : 720 pixels\nHeight                           : 554 pixels\nDisplay aspect ratio             : 16:9\nStream size                      : 1.11 GiB (81%)\nWriting library                  : XviD 1.1.2 (UTC 2006-11-01)\n\nAudio\n\nFormat                           : AC-3\nDuration                         : 1h 21mn\nBit rate                         : 448 Kbps\nChannel(s)                       : 6 channels\nChannel positions                : Front: L C R, Side: L R, LFE\nSampling rate                    : 48.0 KHz\nBit depth                        : 16 bits\nStream size                      : 263 MiB (19%)\n\n\nText #1\nLanguage                         : Swedish\n\nText #2\nLanguage                         : Norwegian\n\nText #3\nLanguage                         : Finnish","torrent":{"xt":"urn:btih:123c0fcd317090cd1a5da7295d652e9748e64d78","amp;dn":"Wrong.Side.Of.Town.2010.DVDRiP.XViD.AC3%285.1%29.Multi_Sub.avi.Zen_B","amp;tr":["udp%3A%2F%2Ftracker.openbittorrent.com%3A80","udp%3A%2F%2Fopen.demonii.com%3A1337","udp%3A%2F%2Ftracker.coppersurfer.tk%3A6969","udp%3A%2F%2Fexodus.desync.com%3A6969"],"infoHash":"123c0fcd317090cd1a5da7295d652e9748e64d78","infoHashBuffer":{"type":"Buffer","data":[18,60,15,205,49,112,144,205,26,93,167,41,93,101,46,151,72,230,77,120]},"announce":[],"urlList":[]}}